{
    "asset" : {
        "generator" : "Khronos glTF Blender I/O v3.4.50",
        "version" : "2.0"
    },
    "scene" : 0,
    "scenes" : [
        {
            "name" : "Scene",
            "nodes" : [
                0
            ]
        }
    ],
    "nodes" : [
        {
            "mesh" : 0,
            "name" : "mesh.016"
        }
    ],
    "materials" : [
        {
            "doubleSided" : true,
            "name" : "Cap_4",
            "pbrMetallicRoughness" : {
                "baseColorTexture" : {
                    "index" : 0
                },
                "metallicFactor" : 0
            }
        }
    ],
    "meshes" : [
        {
            "name" : "mesh.017",
            "primitives" : [
                {
                    "attributes" : {
                        "POSITION" : 0,
                        "TEXCOORD_0" : 1,
                        "NORMAL" : 2
                    },
                    "indices" : 3,
                    "material" : 0
                }
            ]
        }
    ],
    "textures" : [
        {
            "sampler" : 0,
            "source" : 0
        }
    ],
    "images" : [
        {
            "bufferView" : 4,
            "mimeType" : "image/jpeg",
            "name" : "Cap_4"
        }
    ],
    "accessors" : [
        {
            "bufferView" : 0,
            "componentType" : 5126,
            "count" : 18552,
            "max" : [
                0.14696070551872253,
                0.14306902885437012,
                0.09753958135843277
            ],
            "min" : [
                -0.1706903874874115,
                -0.008323773741722107,
                -0.10510361194610596
            ],
            "type" : "VEC3"
        },
        {
            "bufferView" : 1,
            "componentType" : 5126,
            "count" : 18552,
            "type" : "VEC2"
        },
        {
            "bufferView" : 2,
            "componentType" : 5126,
            "count" : 18552,
            "type" : "VEC3"
        },
        {
            "bufferView" : 3,
            "componentType" : 5123,
            "count" : 52143,
            "type" : "SCALAR"
        }
    ],
    "bufferViews" : [
        {
            "buffer" : 0,
            "byteLength" : 222624,
            "byteOffset" : 0,
            "target" : 34962
        },
        {
            "buffer" : 0,
            "byteLength" : 148416,
            "byteOffset" : 222624,
            "target" : 34962
        },
        {
            "buffer" : 0,
            "byteLength" : 222624,
            "byteOffset" : 371040,
            "target" : 34962
        },
        {
            "buffer" : 0,
            "byteLength" : 104286,
            "byteOffset" : 593664,
            "target" : 34963
        },
        {
            "buffer" : 0,
            "byteLength" : 421453,
            "byteOffset" : 697952
        }
    ],
    "samplers" : [
        {
            "magFilter" : 9729,
            "minFilter" : 9987
        }
    ],
    "buffers" : [
        {
            "byteLength" : 1119408,
            "uri" : "data:application/octet-stream;base64,"
        }
    ]
}
