{
    "asset" : {
        "generator" : "Khronos glTF Blender I/O v3.4.50",
        "version" : "2.0"
    },
    "scene" : 0,
    "scenes" : [
        {
            "name" : "Scene",
            "nodes" : [
                0
            ]
        }
    ],
    "nodes" : [
        {
            "mesh" : 0,
            "name" : "mesh.012"
        }
    ],
    "materials" : [
        {
            "doubleSided" : true,
            "name" : "Mask_1",
            "pbrMetallicRoughness" : {
                "baseColorTexture" : {
                    "index" : 0
                },
                "metallicFactor" : 0
            }
        }
    ],
    "meshes" : [
        {
            "name" : "mesh.013",
            "primitives" : [
                {
                    "attributes" : {
                        "COLOR_0" : 0,
                        "POSITION" : 1,
                        "TEXCOORD_0" : 2,
                        "NORMAL" : 3
                    },
                    "indices" : 4,
                    "material" : 0
                }
            ]
        }
    ],
    "textures" : [
        {
            "sampler" : 0,
            "source" : 0
        }
    ],
    "images" : [
        {
            "bufferView" : 5,
            "mimeType" : "image/jpeg",
            "name" : "Mask_1"
        }
    ],
    "accessors" : [
        {
            "bufferView" : 0,
            "componentType" : 5123,
            "count" : 32133,
            "normalized" : true,
            "type" : "VEC4"
        },
        {
            "bufferView" : 1,
            "componentType" : 5126,
            "count" : 32133,
            "max" : [
                0.09205475449562073,
                0.31335896253585815,
                0.10416080802679062
            ],
            "min" : [
                -0.10883777588605881,
                -0.002194717526435852,
                -0.1109292134642601
            ],
            "type" : "VEC3"
        },
        {
            "bufferView" : 2,
            "componentType" : 5126,
            "count" : 32133,
            "type" : "VEC2"
        },
        {
            "bufferView" : 3,
            "componentType" : 5126,
            "count" : 32133,
            "type" : "VEC3"
        },
        {
            "bufferView" : 4,
            "componentType" : 5123,
            "count" : 32133,
            "type" : "SCALAR"
        }
    ],
    "bufferViews" : [
        {
            "buffer" : 0,
            "byteLength" : 257064,
            "byteOffset" : 0,
            "target" : 34962
        },
        {
            "buffer" : 0,
            "byteLength" : 385596,
            "byteOffset" : 257064,
            "target" : 34962
        },
        {
            "buffer" : 0,
            "byteLength" : 257064,
            "byteOffset" : 642660,
            "target" : 34962
        },
        {
            "buffer" : 0,
            "byteLength" : 385596,
            "byteOffset" : 899724,
            "target" : 34962
        },
        {
            "buffer" : 0,
            "byteLength" : 64266,
            "byteOffset" : 1285320,
            "target" : 34963
        },
        {
            "buffer" : 0,
            "byteLength" : 1244131,
            "byteOffset" : 1349588
        }
    ],
    "samplers" : [
        {
            "magFilter" : 9729,
            "minFilter" : 9987
        }
    ],
    "buffers" : [
        {
            "byteLength" : 2593720,
            "uri" : "data:application/octet-stream;base64,"
        }
    ]
}
