{"asset":{"generator":"Khronos glTF Blender I/O v3.4.50","version":"2.0"},"scene":0,"scenes":[{"name":"Scene","nodes":[0]}],"nodes":[{"mesh":0,"name":"defaultMaterial"}],"materials":[{"emissiveFactor":[1,1,1],"emissiveTexture":{"index":0},"name":"default","normalTexture":{"index":1},"occlusionTexture":{"index":2},"pbrMetallicRoughness":{"baseColorTexture":{"index":3},"metallicRoughnessTexture":{"index":2}}}],"meshes":[{"name":"defaultMaterial","primitives":[{"attributes":{"POSITION":0,"TEXCOORD_0":1,"NORMAL":2},"indices":3,"material":0}]}],"textures":[{"sampler":0,"source":0},{"sampler":0,"source":1},{"sampler":0,"source":2},{"sampler":0,"source":3}],"images":[{"mimeType":"image/jpeg","name":"Image_2","uri":"data:application/octet-stream;base64,"},{"mimeType":"image/png","name":"Image_3","uri":"data:application/octet-stream;base64,"},{"mimeType":"image/png","name":"Image_1","uri":"data:application/octet-stream;base64,"},{"mimeType":"image/jpeg","name":"Image_0","uri":"data:application/octet-stream;base64,"}],"accessors":[{"bufferView":0,"componentType":5126,"count":950,"max":[1.0683482885360718,0.3704124391078949,0.09326126426458359],"min":[-0.9973841905593872,0.18376871943473816,-0.09326126426458359],"type":"VEC3"},{"bufferView":1,"componentType":5126,"count":950,"type":"VEC2"},{"bufferView":2,"componentType":5126,"count":950,"type":"VEC3"},{"bufferView":3,"componentType":5123,"count":4596,"type":"SCALAR"}],"bufferViews":[{"buffer":0,"byteLength":11400,"byteOffset":0,"target":34962},{"buffer":0,"byteLength":7600,"byteOffset":11400,"target":34962},{"buffer":0,"byteLength":11400,"byteOffset":19000,"target":34962},{"buffer":0,"byteLength":9192,"byteOffset":30400,"target":34963}],"samplers":[{"magFilter":9729,"minFilter":9987}],"buffers":[{"byteLength":39592,"uri":"data:application/octet-stream;base64,"}]}