{"accessors" : [{"bufferView" : 0, "byteOffset" : 0, "componentType" : 5123, "count" : 20397, "type" : "SCALAR", "max" : [20396], "min" : [0]}, {"bufferView" : 1, "byteOffset" : 0, "componentType" : 5126, "count" : 20397, "type" : "VEC3", "max" : [0.147182434797287, 0.12846639752388, 0.10636771470308304], "min" : [-0.16494017839431763, -0.021586302667856216, -0.11095084995031357], "name" : "POSITION"}, {"bufferView" : 1, "byteOffset" : 12, "componentType" : 5126, "count" : 20397, "type" : "VEC2", "max" : [0.9996699094772339, 0.9998804330825806], "min" : [8.656486897962168E-05, 0.00125044584274292], "name" : "TEXCOORD_0"}, {"bufferView" : 1, "byteOffset" : 20, "componentType" : 5126, "count" : 20397, "type" : "VEC3", "max" : [0.9999425411224365, 0.9999666810035706, 1.0000015497207642], "min" : [-0.9998101592063904, -0.9999977946281433, -0.9999944567680359], "name" : "NORMAL"}], "asset" : {"generator" : "Aspose.3D 23.4.0", "version" : "2.0"}, "buffers" : [{"uri" : "data:application/octet-stream;base64,", "byteLength" : 693508}], "bufferViews" : [{"buffer" : 0, "byteOffset" : 0, "byteLength" : 40796, "target" : 34963}, {"buffer" : 0, "byteOffset" : 40800, "byteLength" : 652704, "byteStride" : 32, "target" : 34962}], "images" : [{"uri" : "data:image/jpeg;base64,"}], "materials" : [{"name" : "Cap_1", "pbrMetallicRoughness" : {"baseColorFactor" : [1, 1, 1, 1], "baseColorTexture" : {"index" : 0, "texCoord" : 0}, "metallicFactor" : 0, "roughnessFactor" : 1}, "emissiveFactor" : [0, 0, 0], "alphaMode" : "OPAQUE", "doubleSided" : true}], "meshes" : [{"primitives" : [{"attributes" : {"POSITION" : 1, "TEXCOORD_0" : 2, "NORMAL" : 3}, "indices" : 0, "material" : 0, "mode" : 4}]}], "nodes" : [{"mesh" : 0, "name" : "mesh.011"}], "samplers" : [{"magFilter" : 9729, "minFilter" : 9987, "wrapS" : 10497, "wrapT" : 10497}], "scene" : 0, "scenes" : [{"nodes" : [0]}], "textures" : [{"sampler" : 0, "source" : 0, "name" : ""}]}