{
    "asset" : {
        "generator" : "Khronos glTF Blender I/O v3.4.50",
        "version" : "2.0"
    },
    "scene" : 0,
    "scenes" : [
        {
            "name" : "Scene",
            "nodes" : [
                0
            ]
        }
    ],
    "nodes" : [
        {
            "mesh" : 0,
            "name" : "mesh.012",
            "rotation" : [
                0.6565274000167847,
                -0.2569516599178314,
                0.31799861788749695,
                0.6338962912559509
            ],
            "scale" : [
                0.1458592265844345,
                0.1458592414855957,
                0.14207255840301514
            ]
        }
    ],
    "materials" : [
        {
            "doubleSided" : true,
            "name" : "Cap_2",
            "pbrMetallicRoughness" : {
                "baseColorTexture" : {
                    "index" : 0
                },
                "metallicFactor" : 0
            }
        }
    ],
    "meshes" : [
        {
            "name" : "mesh.013",
            "primitives" : [
                {
                    "attributes" : {
                        "POSITION" : 0,
                        "TEXCOORD_0" : 1,
                        "NORMAL" : 2
                    },
                    "indices" : 3,
                    "material" : 0
                }
            ]
        }
    ],
    "textures" : [
        {
            "sampler" : 0,
            "source" : 0
        }
    ],
    "images" : [
        {
            "bufferView" : 4,
            "mimeType" : "image/jpeg",
            "name" : "Cap_2"
        }
    ],
    "accessors" : [
        {
            "bufferView" : 0,
            "componentType" : 5126,
            "count" : 8058,
            "max" : [
                0.7449145317077637,
                1.0234715938568115,
                0.2865230441093445
            ],
            "min" : [
                -1.1185237169265747,
                -1.005423903465271,
                -0.926665186882019
            ],
            "type" : "VEC3"
        },
        {
            "bufferView" : 1,
            "componentType" : 5126,
            "count" : 8058,
            "type" : "VEC2"
        },
        {
            "bufferView" : 2,
            "componentType" : 5126,
            "count" : 8058,
            "type" : "VEC3"
        },
        {
            "bufferView" : 3,
            "componentType" : 5123,
            "count" : 28194,
            "type" : "SCALAR"
        }
    ],
    "bufferViews" : [
        {
            "buffer" : 0,
            "byteLength" : 96696,
            "byteOffset" : 0,
            "target" : 34962
        },
        {
            "buffer" : 0,
            "byteLength" : 64464,
            "byteOffset" : 96696,
            "target" : 34962
        },
        {
            "buffer" : 0,
            "byteLength" : 96696,
            "byteOffset" : 161160,
            "target" : 34962
        },
        {
            "buffer" : 0,
            "byteLength" : 56388,
            "byteOffset" : 257856,
            "target" : 34963
        },
        {
            "buffer" : 0,
            "byteLength" : 596560,
            "byteOffset" : 314244
        }
    ],
    "samplers" : [
        {
            "magFilter" : 9729,
            "minFilter" : 9987
        }
    ],
    "buffers" : [
        {
            "byteLength" : 910804,
            "uri" : "data:application/octet-stream;base64,"
        }
    ]
}
